PathFileType	4	(X/Y/Z)	c:/Users/goper/Files/vsCode/490R/osim_files/A03/A03_SSWS_05.trc
DataRate	CameraRate	NumFrames	NumMarkers	Units                	OrigDataRate	OrigDataStartFrame	OrigNumFrames
250.00	250.00	8	36	mm	250.0	1917	3066
                Frame#	Time	LPSIS			LASIS			LTH1			LTH2			LTH3			LTH4			LLFE			LMFE			LSH1			LSH2			LSH3			LSH4			LLMAL			LMMAL			LCAL			LMTP5			LTOE			LMTP1			RPSIS			RASIS			RTH1			RTH2			RTH3			RTH4			RLFE			RMFE			RSH1			RSH2			RSH3			RSH4			RLMAL			RMMAL			RCAL			RMTP1			RTOE			RMTP5		
		X1	Y1	Z1	X2	Y2	Z2	X3	Y3	Z3	X4	Y4	Z4	X5	Y5	Z5	X6	Y6	Z6	X7	Y7	Z7	X8	Y8	Z8	X9	Y9	Z9	X10	Y10	Z10	X11	Y11	Z11	X12	Y12	Z12	X13	Y13	Z13	X14	Y14	Z14	X15	Y15	Z15	X16	Y16	Z16	X17	Y17	Z17	X18	Y18	Z18	X19	Y19	Z19	X20	Y20	Z20	X21	Y21	Z21	X22	Y22	Z22	X23	Y23	Z23	X24	Y24	Z24	X25	Y25	Z25	X26	Y26	Z26	X27	Y27	Z27	X28	Y28	Z28	X29	Y29	Z29	X30	Y30	Z30	X31	Y31	Z31	X32	Y32	Z32	X33	Y33	Z33	X34	Y34	Z34	X35	Y35	Z35	X36	Y36	Z36

1917	7.66400	-3131.05298	1080.29004	231.29143	0.00000	0.00000	0.00000	-3324.31958	641.73071	395.35843	-3335.88354	599.39886	390.09760	-3382.64355	653.40540	379.61725	-3385.94165	609.83447	376.38834	-3328.87305	554.12616	378.03867	-3361.36621	555.31488	224.11542	-3287.37646	467.36734	369.08716	-3290.83008	419.16141	366.20007	-3350.51562	461.93573	368.70862	-3342.77441	416.46295	361.46057	-3296.15796	100.55847	317.26077	-3310.49414	108.57715	221.91693	-3229.02710	85.12148	262.11487	-3446.09009	48.52480	333.62167	-3476.00146	80.76311	267.42096	-3448.24487	59.61805	221.38127	-3139.31812	1084.18860	148.35774	-3396.17676	1005.95026	80.62437	-3425.24072	658.12793	-6.35924	-3433.25342	613.47534	-2.01377	-3486.40967	665.76593	7.83550	-3487.62402	620.89075	10.76288	-3455.16089	580.93109	16.27966	-3476.21191	577.83795	142.39471	-3384.52319	556.14105	1.99627	-3358.15234	523.73627	-10.43308	-3432.25586	513.20087	4.09083	0.00000	0.00000	0.00000	-3158.68433	284.18564	14.90933	0.00000	0.00000	0.00000	-3091.03906	301.67093	61.24067	-3187.62842	115.56784	122.21552	-3231.03003	108.41544	77.82873	-3190.74316	109.16765	6.29226
1918	7.66800	-3135.28662	1080.69751	231.11964	0.00000	0.00000	0.00000	-3325.97388	641.87866	395.22876	-3337.24438	599.41229	389.83722	-3383.52148	652.51147	379.68097	-3387.31714	609.47113	376.29468	-3332.08057	555.06946	379.06885	-3362.51831	555.18964	223.84990	-3288.54370	467.28912	369.61514	-3291.23877	419.28622	366.00241	-3352.01855	462.19202	368.34714	-3342.12671	415.56369	360.91382	-3296.22681	100.66514	317.21225	-3311.16504	108.64785	222.34270	-3229.04883	85.19650	262.07202	-3447.20972	49.06668	335.11606	-3476.06885	80.69021	267.40497	-3448.27539	59.54606	221.37039	-3143.76196	1084.52148	148.28876	-3401.21069	1006.86511	81.31038	-3433.90332	658.86456	-5.28988	-3442.00781	614.99615	-0.41932	-3493.90381	667.70477	8.77405	-3495.51123	622.61279	11.82485	-3462.97534	582.53491	17.37251	-3484.16699	579.80322	143.30031	-3391.80640	556.83862	2.33592	-3366.43311	524.46033	-11.16419	-3440.98657	514.38770	4.96169	0.00000	0.00000	0.00000	-3169.98096	282.28067	15.58224	0.00000	0.00000	0.00000	-3102.33081	298.32422	61.90139	-3201.78662	113.57796	122.24277	-3245.66968	107.54095	77.79314	-3205.25073	107.80093	6.26108
1919	7.67200	-3139.54395	1081.02954	231.01631	0.00000	0.00000	0.00000	-3324.69263	640.25989	394.43472	-3337.91138	599.26221	389.39435	-3386.02466	652.77094	379.51791	-3387.72095	608.55768	376.25433	-3331.00562	554.23895	377.45700	-3363.68433	555.12366	223.56013	-3289.22852	467.70804	368.58902	-3292.00366	419.45444	365.75793	-3354.69043	463.36032	369.34518	-3344.36377	416.53635	361.05923	-3296.27661	100.70576	317.16666	-3311.21338	108.65056	222.30827	-3229.74121	85.16910	261.98782	-3447.22388	49.04539	335.10849	-3476.13403	80.63861	267.36896	-3448.31226	59.47461	221.36655	-3149.34033	1084.54114	148.29344	-3406.25171	1007.79358	81.99364	-3441.45215	660.30328	-4.61136	-3450.00000	616.31970	0.18639	-3501.32446	669.59833	9.68116	-3503.30981	624.36359	12.84542	-3470.84961	584.22382	18.45312	-3491.98340	581.71576	144.16048	-3400.57642	557.54004	3.85710	-3375.22046	524.48138	-8.82248	-3449.61084	515.52454	5.80302	0.00000	0.00000	0.00000	-3182.80615	279.84454	16.20221	0.00000	0.00000	0.00000	-3113.55859	294.82617	62.80980	-3216.57300	111.73313	122.24979	-3260.38867	106.55208	77.84622	-3220.01562	106.42886	6.28577
1920	7.67600	-3143.84375	1081.40747	230.87157	0.00000	0.00000	0.00000	-3326.29297	640.38623	394.27374	-3339.19629	599.23285	389.11462	-3387.66846	652.40295	379.43890	-3390.05615	608.80237	376.04575	-3332.08179	554.31952	377.08624	-3364.87012	555.04498	223.32483	-3290.51172	467.70190	369.04599	-3293.19360	419.67432	365.41846	-3355.53491	463.39023	369.06946	-3343.66724	415.62646	360.48343	-3296.32300	100.74895	317.10492	-3311.23364	108.61444	222.23759	-3229.10547	85.31914	261.97623	-3447.22729	49.01303	335.09415	-3476.20044	80.59872	267.33575	-3448.33813	59.38458	221.36826	-3153.96582	1084.93420	148.21048	-3411.24390	1008.65314	82.66293	-3448.68018	661.50037	-3.80096	-3457.79590	617.77374	0.95373	-3508.68140	671.62354	9.55929	-3510.83203	627.05597	12.70833	-3477.64819	585.32043	20.13533	-3499.73486	583.54822	145.01392	-3408.45312	558.25092	4.92114	-3385.65015	526.18335	-9.75733	-3453.38135	515.93811	10.33507	0.00000	0.00000	0.00000	-3195.14404	277.40997	17.15894	0.00000	0.00000	0.00000	-3124.98096	291.01477	63.53237	-3231.29321	109.76237	122.30176	-3275.33789	105.63312	77.95833	-3234.98999	105.01324	6.35316
1921	7.68000	-3148.90894	1081.56665	230.28043	0.00000	0.00000	0.00000	-3327.89966	640.48615	394.09933	-3340.51807	599.21509	388.78882	-3389.31543	652.08301	379.32913	-3391.37573	608.44086	375.90134	-3333.33398	554.30676	376.86630	-3365.90747	554.90039	222.97699	-3291.38037	467.87622	368.74814	-3293.53613	419.75238	365.20911	-3356.44263	463.44360	368.80386	-3344.40918	415.63226	360.26898	-3296.37720	100.82435	317.07962	-3311.26099	108.61293	222.20039	-3229.15918	85.37991	261.92719	-3447.20874	48.97808	335.07599	-3476.20068	80.49614	267.31857	-3448.35840	59.31635	221.36852	-3158.60449	1085.19800	148.19655	-3416.23120	1009.45203	83.29147	-3455.93237	662.80646	-3.00218	-3465.41406	619.10651	1.76797	-3515.79272	673.21295	11.46750	-3518.59521	627.83850	14.76892	-3485.40332	586.89618	21.00177	-3507.42065	585.37225	145.85236	-3416.21729	558.87341	5.98208	-3392.01147	524.92670	-7.15836	-3461.89404	517.15131	11.18074	-3429.68921	486.82901	-4.35150	-3206.43433	275.24344	17.58311	0.00000	0.00000	0.00000	-3136.49609	287.19589	64.40435	-3246.20215	107.89807	122.49580	-3290.46582	104.66260	78.12076	-3250.13599	103.56310	6.46164
1922	7.68400	-3153.43604	1081.70203	230.56610	0.00000	0.00000	0.00000	-3329.49487	640.57758	393.90564	-3341.84595	599.25769	388.46680	-3391.00928	651.73065	379.20660	-3392.73755	608.08545	375.71786	-3334.36841	554.33807	376.52094	-3367.03101	554.78314	222.70000	-3292.24487	468.03619	368.47052	-3294.68311	419.95944	364.90173	-3357.31543	463.47897	368.55930	-3345.19580	415.65701	360.02310	-3296.42871	100.87185	316.99127	-3311.37451	108.64476	222.17058	-3229.19678	85.44036	261.89139	-3447.25757	48.97341	335.04529	-3476.26733	80.44063	267.26602	-3448.38916	59.23783	221.36038	-3163.23706	1085.44373	148.12759	-3421.20068	1010.21997	83.90845	-3463.13208	664.12421	-2.29231	-3473.01343	620.52100	2.53981	-3522.87012	674.92194	12.33637	-3525.84375	630.63397	14.54595	-3493.09033	588.43176	21.85269	-3514.96802	587.09772	146.66473	0.00000	0.00000	0.00000	-3400.36426	525.08954	-6.35730	-3470.26001	518.29230	11.97888	-3438.00366	487.20334	-3.02001	-3218.05444	272.89673	18.47381	0.00000	0.00000	0.00000	-3148.22559	283.16595	64.83794	-3261.28540	105.65943	122.56892	-3305.64722	103.62888	78.31181	-3265.48096	102.09814	6.61687
1923	7.68800	-3157.88989	1081.93140	230.39388	0.00000	0.00000	0.00000	-3331.13013	640.68701	393.69766	-3344.03467	599.56232	388.32214	-3392.70630	651.40930	379.09280	-3394.09937	607.76135	375.56149	-3335.34375	554.29755	376.04153	-3368.14233	554.71307	222.39479	-3293.53442	467.87701	368.79590	-3294.88354	420.06631	364.18961	-3358.16431	463.52368	368.28290	-3345.88940	415.66760	359.76480	-3296.47510	100.94899	316.94257	-3311.47559	108.70097	222.12036	-3229.88379	85.44172	261.74484	-3447.25586	48.95837	335.04446	-3476.26953	80.33031	267.27765	-3448.42383	59.18839	221.34021	-3167.86938	1085.70898	148.04790	-3426.09497	1010.91583	84.49200	0.00000	0.00000	0.00000	-3480.33203	621.70581	3.32679	-3529.88232	676.60126	13.15637	-3533.16528	632.33521	15.44767	-3500.67578	589.89679	22.70412	-3522.41870	588.78235	147.44434	0.00000	0.00000	0.00000	-3408.60083	525.20068	-5.56539	-3478.60913	519.42065	12.79762	-3446.83618	487.84470	-2.24328	-3229.30713	270.55460	19.74192	0.00000	0.00000	0.00000	-3159.56665	279.06805	65.76238	-3276.35742	103.48079	122.90084	-3321.05859	102.67818	78.58617	-3280.98096	100.58805	6.81161
1924	7.69200	-3162.35669	1082.14075	230.24492	0.00000	0.00000	0.00000	-3335.03296	641.49933	392.39365	-3345.36377	599.61115	388.00278	-3394.40137	651.07355	378.97360	-3395.42261	607.39569	375.38370	-3336.21362	554.51721	375.57736	-3369.17798	554.55872	222.06007	-3295.29858	467.99380	368.61548	-3295.74854	420.24347	364.45139	-3358.97852	463.56906	368.00912	-3348.22974	416.74051	359.90955	-3296.51733	101.00066	316.88025	-3311.49438	108.67155	222.09183	-3229.89893	85.47134	261.69482	-3447.25562	48.96555	335.03922	-3476.29517	80.25336	267.27481	-3448.43652	59.11973	221.34738	-3172.37207	1085.89783	148.03908	-3431.00781	1011.55780	85.09473	0.00000	0.00000	0.00000	-3487.68140	622.97198	4.12442	-3536.76953	678.20490	14.00032	-3540.34106	633.71503	17.15428	-3508.15015	591.31982	23.53643	-3529.79810	590.42841	148.25362	-3439.74316	561.92072	8.21433	-3416.57910	525.59918	-6.36881	-3486.83081	520.49652	13.60815	-3455.61499	488.45245	-1.45001	-3241.14478	267.70242	20.56749	0.00000	0.00000	0.00000	-3171.62231	274.66431	66.61324	-3292.41577	102.04094	123.08443	-3336.54102	101.66560	78.87822	-3296.59375	99.05653	7.05742
